HIERARCHY
ROOT Hips
{
    OFFSET 0.000000 0.000000 0.000000
    CHANNELS 6 Xposition Yposition Zposition Zrotation Xrotation Yrotation
    JOINT Spine
    {
        OFFSET -0.000000 14.517291 0.000000
        CHANNELS 3 Zrotation Xrotation Yrotation
        JOINT Spine1
        {
            OFFSET -0.000000 37.558300 0.000000
            CHANNELS 3 Zrotation Xrotation Yrotation
            JOINT Neck
            {
                OFFSET -0.000000 37.404057 3.400369
                CHANNELS 3 Zrotation Xrotation Yrotation
                JOINT Head
                {
                    OFFSET -0.000000 24.785618 -3.540803
                    CHANNELS 3 Zrotation Xrotation Yrotation
                    End Site
                    {
                        OFFSET -0.000000 35.408028 0.000000
                    }
                }
            }
            JOINT LeftShoulder
            {
                OFFSET 6.992933 33.973492 -0.192664
                CHANNELS 3 Zrotation Xrotation Yrotation
                JOINT LeftArm
                {
                    OFFSET 21.527611 0.000000 0.000000
                    CHANNELS 3 Zrotation Xrotation Yrotation
                    JOINT LeftForeArm
                    {
                        OFFSET 56.353916 0.000000 0.000000
                        CHANNELS 3 Zrotation Xrotation Yrotation
                        JOINT LeftHand
                        {
                            OFFSET 47.774071 0.000000 0.000000
                            CHANNELS 3 Zrotation Xrotation Yrotation
                            End Site
                            {
                                OFFSET 26.556021 0.000000 0.000000
                            }
                        }
                    }
                }
            }
            JOINT RightShoulder
            {
                OFFSET -7.065357 33.973492 -0.192664
                CHANNELS 3 Zrotation Xrotation Yrotation
                JOINT RightArm
                {
                    OFFSET -21.527611 0.000000 0.000000
                    CHANNELS 3 Zrotation Xrotation Yrotation
                    JOINT RightForeArm
                    {
                        OFFSET -56.353916 0.000000 0.000000
                        CHANNELS 3 Zrotation Xrotation Yrotation
                        JOINT RightHand
                        {
                            OFFSET -47.774071 0.000000 0.000000
                            CHANNELS 3 Zrotation Xrotation Yrotation
                            End Site
                            {
                                OFFSET -26.556021 0.000000 0.000000
                            }
                        }
                    }
                }
            }
        }
    }
    JOINT LeftUpLeg
    {
        OFFSET 17.704014 0.000000 0.000000
        CHANNELS 3 Zrotation Xrotation Yrotation
        JOINT LeftLeg
        {
            OFFSET -0.000000 -81.181816 0.000000
            CHANNELS 3 Zrotation Xrotation Yrotation
            JOINT LeftFoot
            {
                OFFSET -0.000000 -62.821102 0.000000
                CHANNELS 3 Zrotation Xrotation Yrotation
                JOINT LeftToeBase
                {
                    OFFSET -0.000000 -11.507608 26.556021
                    CHANNELS 3 Zrotation Xrotation Yrotation
                    End Site
                    {
                        OFFSET -0.000000 0.000000 7.081605
                    }
                }
            }
        }
    }
    JOINT RightUpLeg
    {
        OFFSET -17.704014 0.000000 0.000000
        CHANNELS 3 Zrotation Xrotation Yrotation
        JOINT RightLeg
        {
            OFFSET -0.000000 -81.181816 0.000000
            CHANNELS 3 Zrotation Xrotation Yrotation
            JOINT RightFoot
            {
                OFFSET -0.000000 -62.821102 0.000000
                CHANNELS 3 Zrotation Xrotation Yrotation
                JOINT RightToeBase
                {
                    OFFSET -0.000000 -11.507608 26.556021
                    CHANNELS 3 Zrotation Xrotation Yrotation
                    End Site
                    {
                        OFFSET -0.000000 0.000000 7.081605
                    }
                }
            }
        }
    }
}
MOTION
Frames:    8
Frame Time:    0.008333
21.990482    146.952347    47.918056    3.242589    2.710246    -56.781864    0.213714    -1.260055    1.074229    3.142052    -2.425459    0.422152    18.741581    2.403484    19.054596    -15.050470    6.918044    16.260771    11.566723    0.996596    -15.059033    -4.447298    -6.424763    -19.484259    -4.605349    -1.690557    -87.005745    -2.823500    -5.478838    -23.169022    -7.757549    0.191055    -4.143029    30.935555    -16.361204    52.797947    23.571344    -0.142236    134.283890    67.571419    -21.932564    53.088261    35.725979    -23.237291    26.537031    -28.078938    40.500679    3.225657    -1.310207    -12.309831    43.666878    0.000000    0.000000    0.000000    -28.501038    -7.466331    -18.735294    3.652971    31.398550    -7.007778    19.824915    -12.516541    6.151475    0.000000    0.000000    0.000000    
21.987013    146.956161    47.910805    3.245225    2.708409    -56.778137    0.206940    -1.263094    1.074086    3.147223    -2.424435    0.422167    18.730827    2.411296    19.047827    -15.036847    6.896430    16.254608    11.568205    1.003602    -15.052201    -4.448584    -6.441415    -19.484856    -4.586091    -1.697185    -87.002205    -2.836066    -5.464300    -23.165140    -7.752279    0.211927    -4.149043    30.965466    -16.375401    52.810555    23.519056    -0.299281    134.230011    67.297676    -22.049141    53.071571    35.713715    -23.196402    26.570797    -28.060783    40.436546    3.113652    -1.259775    -12.301485    43.717991    0.000000    0.000000    0.000000    -28.501818    -7.464474    -18.727491    3.653858    31.391371    -7.007523    19.724518    -12.485816    6.226143    0.000000    0.000000    0.000000    
21.983465    146.960449    47.898865    3.249227    2.712624    -56.779099    0.202798    -1.267614    1.076942    3.147129    -2.421312    0.423137    18.731466    2.405811    19.052008    -15.024556    6.882152    16.257067    11.569056    0.994971    -15.039541    -4.439888    -6.442075    -19.485683    -4.590821    -1.708272    -87.017944    -2.824218    -5.484684    -23.111635    -7.735980    0.207150    -4.145927    31.026611    -16.428373    52.812393    23.461695    -0.413200    134.151764    66.969849    -22.132729    53.028297    35.712894    -23.199131    26.580122    -28.033827    40.431236    3.102937    -1.271879    -12.298375    43.704948    0.000000    0.000000    0.000000    -28.493504    -7.469447    -18.725309    3.651005    31.387602    -6.996340    19.755083    -12.484495    6.198728    0.000000    0.000000    0.000000    
21.974684    146.964127    47.891861    3.242254    2.712908    -56.775406    0.200955    -1.266855    1.080160    3.153238    -2.417724    0.424191    18.717985    2.409518    19.045092    -15.012082    6.854417    16.249495    11.568716    0.992050    -15.038490    -4.441340    -6.433517    -19.482351    -4.567976    -1.739272    -87.035774    -2.833622    -5.494337    -23.075031    -7.726875    0.211026    -4.149996    31.090607    -16.464535    52.824680    23.374865    -0.621598    134.083725    66.601639    -22.243544    53.007156    35.715618    -23.192322    26.574007    -28.027363    40.423450    3.098065    -1.284285    -12.293291    43.704479    0.000000    0.000000    0.000000    -28.481792    -7.455049    -18.726608    3.653751    31.380140    -7.004888    19.827749    -12.525477    6.133649    0.000000    0.000000    0.000000    
21.969589    146.963531    47.885735    3.240930    2.711962    -56.770481    0.208272    -1.265918    1.078580    3.137021    -2.420323    0.423393    18.710537    2.425867    19.041613    -14.996996    6.818262    16.245991    11.573833    1.006582    -15.021050    -4.434120    -6.426740    -19.503057    -4.549449    -1.793067    -87.049522    -2.846033    -5.529961    -23.026703    -7.703795    0.213019    -4.142133    31.159506    -16.519873    52.827114    23.262964    -0.842449    133.998093    66.142540    -22.338474    52.975887    35.709663    -23.193312    26.561335    -28.015963    40.413803    3.116507    -1.280196    -12.286140    43.679703    0.000000    0.000000    0.000000    -28.478991    -7.448344    -18.740015    3.642545    31.377136    -7.014638    19.848255    -12.517921    6.160368    0.000000    0.000000    0.000000    
21.964684    146.968109    47.874653    3.242309    2.713611    -56.762604    0.199709    -1.267277    1.077706    3.148571    -2.415967    0.423298    18.698727    2.428957    19.035988    -15.000072    6.776880    16.236441    11.575137    0.992143    -15.016541    -4.437913    -6.429144    -19.599545    -4.408008    -1.838791    -86.839867    -3.421291    -5.231110    -25.547985    -7.695910    0.195226    -4.134761    31.251295    -16.598310    52.817402    23.181238    -1.023947    133.897232    65.656853    -22.453203    52.979683    35.708138    -23.197390    26.552761    -28.002020    40.403751    3.097833    -1.292686    -12.270584    43.684059    0.000000    0.000000    0.000000    -28.478443    -7.445143    -18.776716    3.634915    31.372370    -7.023767    19.752422    -12.482864    6.269377    0.000000    0.000000    0.000000    
21.959793    146.968216    47.867115    3.246913    2.717110    -56.755886    0.200593    -1.272677    1.079546    3.148334    -2.416054    0.423855    18.664948    2.414268    19.033188    -14.949997    6.758434    16.236988    11.562040    0.971454    -15.012906    -4.422589    -6.429427    -19.596504    -4.433919    -1.831106    -86.856918    -3.398521    -5.255261    -25.513351    -7.680781    0.205070    -4.130137    31.322407    -16.674330    52.821621    23.097717    -1.248941    133.796844    65.081139    -22.593985    53.075218    35.710976    -23.206091    26.538216    -28.011301    40.398758    3.112925    -1.314615    -12.282860    43.681080    0.000000    0.000000    0.000000    -28.477032    -7.440377    -18.800497    3.629703    31.372776    -6.994918    19.833769    -12.526757    6.198380    0.000000    0.000000    0.000000    
21.951632    146.968796    47.858383    3.249259    2.722967    -56.751942    0.207397    -1.271723    1.080150    3.133530    -2.423709    0.423965    18.634066    2.394698    19.031727    -14.891203    6.746139    16.239246    11.578473    0.977301    -14.985302    -4.426068    -6.444416    -19.620661    -4.428527    -1.848389    -86.870560    -3.400033    -5.269087    -25.473169    -7.646503    0.197457    -4.109045    31.432583    -16.797380    52.814285    23.094173    -1.359176    133.666458    64.528481    -22.781879    53.191910    35.715008    -23.207071    26.533581    -28.010521    40.379692    3.108090    -1.306251    -12.274459    43.700493    0.000000    0.000000    0.000000    -28.476141    -7.443010    -18.798414    3.645418    31.371809    -6.994889    19.726225    -12.508007    6.250985    0.000000    0.000000    0.000000    
